<svg xmlns="http://www.w3.org/2000/svg" width="1000" height="1400" viewBox="0 0 1000 1400">
  <rect width="1000" height="1400" fill="#0f172a"/>
  <rect x="60" y="60" width="880" height="1280" rx="18" fill="#ffffff"/>
  <text x="110" y="120" font-family="Arial, Helvetica, sans-serif" font-size="28" fill="#0f172a">Portal Estudos</text>
  <text x="110" y="180" font-family="Arial, Helvetica, sans-serif" font-size="20" fill="#111827">Fluxo de estudo</text>

  <rect x="110" y="230" width="780" height="6" fill="#e5e7eb"/>

  <rect x="140" y="280" width="300" height="90" rx="10" fill="#dbeafe" stroke="#93c5fd"/>
  <text x="160" y="330" font-family="Arial, Helvetica, sans-serif" font-size="16" fill="#1e3a8a">Leitura dirigida</text>

  <rect x="560" y="280" width="300" height="90" rx="10" fill="#dcfce7" stroke="#86efac"/>
  <text x="580" y="330" font-family="Arial, Helvetica, sans-serif" font-size="16" fill="#065f46">Revisao ativa</text>

  <rect x="350" y="450" width="300" height="90" rx="10" fill="#fee2e2" stroke="#fecaca"/>
  <text x="380" y="500" font-family="Arial, Helvetica, sans-serif" font-size="16" fill="#7f1d1d">Pratica clinica</text>

  <line x1="290" y1="370" x2="410" y2="450" stroke="#94a3b8" stroke-width="3"/>
  <line x1="710" y1="370" x2="590" y2="450" stroke="#94a3b8" stroke-width="3"/>

  <text x="110" y="620" font-family="Arial, Helvetica, sans-serif" font-size="18" fill="#0f172a">Checklist de aula</text>
  <rect x="110" y="645" width="780" height="6" fill="#e5e7eb"/>

  <circle cx="130" cy="690" r="7" fill="#94a3b8"/>
  <rect x="150" y="682" width="680" height="10" fill="#cbd5f5"/>
  <circle cx="130" cy="730" r="7" fill="#94a3b8"/>
  <rect x="150" y="722" width="640" height="10" fill="#cbd5f5"/>
  <circle cx="130" cy="770" r="7" fill="#94a3b8"/>
  <rect x="150" y="762" width="700" height="10" fill="#cbd5f5"/>

  <text x="110" y="1180" font-family="Arial, Helvetica, sans-serif" font-size="12" fill="#94a3b8">Documento academico ilustrativo - Portal Estudos</text>
</svg>
