<svg xmlns="http://www.w3.org/2000/svg" width="1000" height="1400" viewBox="0 0 1000 1400">
  <rect width="1000" height="1400" fill="#0f172a"/>
  <rect x="60" y="60" width="880" height="1280" rx="18" fill="#ffffff"/>
  <text x="110" y="120" font-family="Arial, Helvetica, sans-serif" font-size="28" fill="#0f172a">Portal Estudos</text>
  <text x="110" y="180" font-family="Arial, Helvetica, sans-serif" font-size="20" fill="#111827">Quadros e tabelas de referencia</text>

  <rect x="110" y="230" width="780" height="260" rx="12" fill="#f8fafc" stroke="#e2e8f0"/>
  <text x="140" y="270" font-family="Arial, Helvetica, sans-serif" font-size="16" fill="#0f172a">Tabela 1 - Termos principais</text>
  <rect x="140" y="300" width="720" height="8" fill="#e2e8f0"/>
  <rect x="140" y="330" width="680" height="8" fill="#e2e8f0"/>
  <rect x="140" y="360" width="700" height="8" fill="#e2e8f0"/>

  <rect x="110" y="540" width="780" height="260" rx="12" fill="#f8fafc" stroke="#e2e8f0"/>
  <text x="140" y="580" font-family="Arial, Helvetica, sans-serif" font-size="16" fill="#0f172a">Figura 1 - Fluxo de estudo</text>
  <rect x="140" y="610" width="720" height="120" rx="8" fill="#dbeafe"/>

  <text x="110" y="860" font-family="Arial, Helvetica, sans-serif" font-size="18" fill="#0f172a">Notas de laboratorio</text>
  <rect x="110" y="885" width="780" height="6" fill="#e5e7eb"/>
  <rect x="110" y="915" width="760" height="10" fill="#cbd5f5"/>
  <rect x="110" y="940" width="730" height="10" fill="#cbd5f5"/>

  <text x="110" y="1180" font-family="Arial, Helvetica, sans-serif" font-size="12" fill="#94a3b8">Documento academico ilustrativo - Portal Estudos</text>
</svg>
