<svg xmlns="http://www.w3.org/2000/svg" width="1000" height="1400" viewBox="0 0 1000 1400">
  <rect width="1000" height="1400" fill="#0f172a"/>
  <rect x="60" y="60" width="880" height="1280" rx="18" fill="#ffffff"/>
  <rect x="110" y="140" width="780" height="8" fill="#e2e8f0"/>
  <text x="110" y="120" font-family="Arial, Helvetica, sans-serif" font-size="28" fill="#0f172a">Portal Estudos</text>
  <text x="110" y="190" font-family="Arial, Helvetica, sans-serif" font-size="32" fill="#111827">Apostila de Estudos</text>
  <text x="110" y="230" font-family="Arial, Helvetica, sans-serif" font-size="16" fill="#6b7280">Resumo academico com conteudo base para a disciplina.</text>

  <text x="110" y="300" font-family="Arial, Helvetica, sans-serif" font-size="18" fill="#0f172a">1. Introducao</text>
  <rect x="110" y="320" width="780" height="6" fill="#e5e7eb"/>
  <rect x="110" y="350" width="740" height="10" fill="#cbd5f5"/>
  <rect x="110" y="375" width="700" height="10" fill="#cbd5f5"/>
  <rect x="110" y="400" width="760" height="10" fill="#cbd5f5"/>

  <text x="110" y="470" font-family="Arial, Helvetica, sans-serif" font-size="18" fill="#0f172a">2. Conceitos Fundamentais</text>
  <rect x="110" y="490" width="780" height="6" fill="#e5e7eb"/>
  <rect x="110" y="520" width="760" height="10" fill="#cbd5f5"/>
  <rect x="110" y="545" width="720" height="10" fill="#cbd5f5"/>
  <rect x="110" y="570" width="740" height="10" fill="#cbd5f5"/>

  <text x="110" y="640" font-family="Arial, Helvetica, sans-serif" font-size="18" fill="#0f172a">3. Aplicacoes Clinicas</text>
  <rect x="110" y="660" width="780" height="6" fill="#e5e7eb"/>
  <rect x="110" y="690" width="760" height="10" fill="#cbd5f5"/>
  <rect x="110" y="715" width="730" height="10" fill="#cbd5f5"/>

  <text x="110" y="1180" font-family="Arial, Helvetica, sans-serif" font-size="12" fill="#94a3b8">Documento academico ilustrativo - Portal Estudos</text>
</svg>
